HIERARCHY
ROOT root
{
	OFFSET	0	13.1	24.9
	CHANNELS 6  Xposition Yposition Zposition Xrotation Yrotation Zrotation
	JOINT spine_1
	{
		OFFSET	0	9.99999	0
		CHANNELS 3  Xrotation Yrotation Zrotation
		JOINT spine_2
		{
			OFFSET	0	112	-10
			CHANNELS 3  Xrotation Yrotation Zrotation
			JOINT spine_3
			{
				OFFSET	0	206.5	19.3
				CHANNELS 3  Xrotation Yrotation Zrotation
				JOINT spine_4
				{
					OFFSET	0	110.4	14.6
					CHANNELS 3  Xrotation Yrotation Zrotation
					JOINT neck_1
					{
						OFFSET	0	71.8	-50.3
						CHANNELS 3  Xrotation Yrotation Zrotation
						JOINT neck_2
						{
							OFFSET	0	86.2	-25.8
							CHANNELS 3  Xrotation Yrotation Zrotation
							JOINT head_ee
							{
								OFFSET	0	179.8	-8.7
								CHANNELS 3  Xrotation Yrotation Zrotation
								End Site
								{
									OFFSET	1	0	0
								}
							}
						}
					}
					JOINT left_clavicle
					{
						OFFSET	-43.2	22.4	-70.8
						CHANNELS 3  Xrotation Yrotation Zrotation
						JOINT left_shoulder
						{
							OFFSET	-93.9	-5.79999	48.7
							CHANNELS 3  Xrotation Yrotation Zrotation
							JOINT left_elbow
							{
								OFFSET	-291.4	-30.8	15.2
								CHANNELS 3  Xrotation Yrotation Zrotation
								JOINT left_lowarm_twist
								{
									OFFSET	-110.7	-3.89999	13.6
									CHANNELS 3  Xrotation Yrotation Zrotation
									JOINT left_hand
									{
										OFFSET	-110.7	-3.89999	13.6
										CHANNELS 3  Xrotation Yrotation Zrotation
										JOINT left_ee
										{
											OFFSET	-80.8	-5.10001	12.1
											CHANNELS 3  Xrotation Yrotation Zrotation
											End Site
											{
												OFFSET	1	0	0
											}
										}
									}
								}
							}
						}
					}
					JOINT right_clavicle
					{
						OFFSET	43.2	22.4	-70.8
						CHANNELS 3  Xrotation Yrotation Zrotation
						JOINT right_shoulder
						{
							OFFSET	93.9	-5.79999	48.7
							CHANNELS 3  Xrotation Yrotation Zrotation
							JOINT right_elbow
							{
								OFFSET	291.4	-30.8	15.2
								CHANNELS 3  Xrotation Yrotation Zrotation
								JOINT right_lowarm_twist
								{
									OFFSET	110.7	-3.89999	13.6
									CHANNELS 3  Xrotation Yrotation Zrotation
									JOINT right_hand
									{
										OFFSET	110.7	-3.89999	13.6
										CHANNELS 3  Xrotation Yrotation Zrotation
										JOINT right_ee
										{
											OFFSET	80.8	-5.10001	12.1
											CHANNELS 3  Xrotation Yrotation Zrotation
											End Site
											{
												OFFSET	1	0	0
											}
										}
									}
								}
							}
						}
					}
				}
			}
		}
	}
	JOINT left_hip
	{
		OFFSET	-82.8	-127.5	0.300001
		CHANNELS 3  Xrotation Yrotation Zrotation
		JOINT left_knee
		{
			OFFSET	-28.2	-396.7	2.2
			CHANNELS 3  Xrotation Yrotation Zrotation
			JOINT left_ankle
			{
				OFFSET	-11.7	-411.3	35.4
				CHANNELS 3  Xrotation Yrotation Zrotation
				JOINT left_toes
				{
					OFFSET	0	-60	-88.6
					CHANNELS 3  Xrotation Yrotation Zrotation
					JOINT left_foot_ee
					{
						OFFSET	-22.5	-16.5	-42.2
						CHANNELS 3  Xrotation Yrotation Zrotation
						End Site
						{
							OFFSET	1	0	0
						}
					}
				}
			}
		}
	}
	JOINT right_hip
	{
		OFFSET	82.8	-127.5	0.300001
		CHANNELS 3  Xrotation Yrotation Zrotation
		JOINT right_knee
		{
			OFFSET	28.2	-396.7	2.2
			CHANNELS 3  Xrotation Yrotation Zrotation
			JOINT right_ankle
			{
				OFFSET	11.7	-411.3	35.4
				CHANNELS 3  Xrotation Yrotation Zrotation
				JOINT right_toes
				{
					OFFSET	0	-60	-88.6
					CHANNELS 3  Xrotation Yrotation Zrotation
					JOINT right_foot_ee
					{
						OFFSET	22.5	-16.5	-42.2
						CHANNELS 3  Xrotation Yrotation Zrotation
						End Site
						{
							OFFSET	1	0	0
						}
					}
				}
			}
		}
	}
}
MOTION
Frames: 15
Frame Time: 0.02
1014.77 635.514 -1603.05 -46.9482 70.1901 50.7973 7.20574 0.104084 0.160264 7.20575 0.0936748 0.166563 7.206 0.0790246 0.173992 7.20598 0.105512 0.159328 -22.8456 -11.8036 -5.09176 -23.5323 -20.4515 -10.3883 -0.0 0.0 -0.0 0.432141 14.2122 2.37476 -22.6756 -19.3031 71.968 10.3038 -78.857 8.47963 -82.9572 -8.19564 5.23017 -4.73625 26.5781 -16.007 -0.0 0.0 -0.0 3.78825 -17.6712 -7.89219 -22.8026 23.2171 -61.023 3.94491 62.8825 -2.41248 -5.19835 0.211907 -0.62958 1.22284 -9.80934 -11.9998 0.0 0.0 0.0 48.215 -12.6812 -1.1765 -48.4364 -1.08874 7.13611 13.9926 -7.61005 -2.03098 -4.24663 0.0 0.0 -0.0 0.0 -0.0 12.0172 -4.0883 -16.5641 3.5821 0.163999 0.525069 30.0024 -26.0239 4.13332 37.4902 -0.0 -0.0 0.0 0.0 0.0 
995.874 640.955 -1607.71 -46.5101 70.3135 50.5954 6.89739 0.14898 0.143207 6.89739 0.139566 0.152396 6.89775 0.125079 0.164494 6.89775 0.149488 0.142676 -23.67 -11.6549 -5.23684 -24.3718 -20.1677 -10.623 -0.0 0.0 -0.0 0.112817 15.0237 1.94821 -22.559 -18.9732 71.7229 7.33112 -74.5649 5.58448 -82.4847 -8.13612 5.23939 -4.95581 26.0649 -17.6607 -0.0 0.0 -0.0 4.4884 -18.161 -8.97635 -21.2589 23.2379 -60.1722 4.06402 63.5668 -2.51882 -5.13289 0.208885 -0.621775 0.611426 -10.4871 -8.27159 0.0 0.0 0.0 48.7866 -7.04398 -4.50224 -41.5328 -0.567155 6.21151 8.60521 -10.1478 -1.293 -4.79249 0.0 0.0 -0.0 0.0 -0.0 11.3317 -2.55586 -17.0326 3.36314 0.153033 0.493269 32.0248 -27.0547 4.39446 39.4017 -0.0 -0.0 0.0 0.0 0.0 
982.866 640.517 -1616.08 -45.3562 70.4767 49.5878 6.79822 0.0880024 0.132285 6.79822 0.0794065 0.137616 6.7984 0.0662691 0.144403 6.79838 0.0882431 0.132124 -23.9349 -11.4544 -5.30678 -24.6153 -19.7721 -10.6366 -0.0 0.0 -0.0 0.158972 15.0456 2.0245 -22.203 -19.4793 71.8455 5.1644 -68.6244 3.5258 -81.6255 -8.02767 5.2549 -5.43873 26.1111 -20.5152 -0.0 0.0 -0.0 4.36429 -18.8426 -8.78125 -22.0453 23.1182 -59.5415 4.49605 65.7989 -2.90943 -4.91902 0.199072 -0.596251 0.260369 -9.94187 -5.79391 0.0 0.0 0.0 49.8246 -0.519286 -8.24102 -32.9414 -0.0797904 4.98577 1.07592 -13.9067 -0.169706 -5.50992 0.0 0.0 -0.0 0.0 -0.0 10.8182 -0.239299 -17.0716 3.054 0.137758 0.448305 33.3099 -28.2986 4.57845 40.7795 -0.0 -0.0 0.0 0.0 0.0 
968.773 644.004 -1618.71 -47.5306 71.4831 51.2134 6.73632 0.0929276 0.155909 6.73633 0.0828184 0.161507 6.73655 0.0672634 0.168579 6.73653 0.0930431 0.15584 -23.8909 -11.6847 -5.15162 -24.6163 -20.2795 -10.6109 -0.0 0.0 -0.0 0.171651 14.3256 1.96509 -20.6989 -20.7721 72.9049 5.21232 -68.8029 3.57045 -82.067 -8.08344 5.24714 -5.42357 26.2248 -20.3358 -0.0 0.0 -0.0 4.19498 -19.0389 -8.52298 -21.7886 23.1707 -58.8589 4.80349 67.1818 -3.19138 -4.29286 0.170893 -0.521318 0.294625 -9.25223 -5.7411 0.0 0.0 0.0 49.5088 1.59026 -8.3225 -29.1173 0.0768639 4.41994 0.814896 -12.2159 -0.127145 -5.70676 0.0 0.0 -0.0 0.0 -0.0 10.0267 1.03916 -17.2188 2.7157 0.121321 0.399006 34.1416 -27.9806 4.66066 40.6004 -0.0 -0.0 0.0 0.0 0.0 
952.41 642.361 -1628.58 -48.9436 71.955 52.9033 6.74946 0.0814956 0.147073 6.74947 0.0719718 0.151961 6.74964 0.0573986 0.158043 6.74962 0.0816381 0.146994 -23.5701 -12.0226 -4.77495 -24.3578 -21.071 -10.3811 -0.0 0.0 -0.0 0.187471 13.3064 1.87775 -18.4783 -22.5579 74.4488 5.27295 -69.0247 3.62702 -82.6978 -8.16298 5.23529 -5.39733 26.3816 -20.0573 -0.0 0.0 -0.0 3.89387 -19.7197 -8.0703 -22.2541 23.2821 -58.1901 5.27657 69.0378 -3.6304 -3.37686 0.131153 -0.411163 0.364215 -8.27084 -5.80203 0.0 0.0 0.0 48.7613 4.46026 -8.60282 -24.5066 0.21499 3.72602 0.458356 -9.78955 -0.0705254 -5.98844 0.0 0.0 -0.0 0.0 -0.0 9.62521 2.70362 -17.3686 2.88931 0.129719 0.424316 35.3103 -27.3232 4.76642 40.0386 -0.0 -0.0 0.0 0.0 0.0 
934.847 636.424 -1631.7 -51.4183 72.1541 55.4806 6.86159 0.0653544 0.127051 6.8616 0.0571373 0.130953 6.86171 0.0448658 0.135648 6.86169 0.0657257 0.12686 -22.938 -12.5057 -4.13997 -23.8096 -22.2406 -9.92089 -0.0 0.0 -0.0 -0.212047 11.7515 1.03236 -15.4475 -24.7833 75.9551 5.39665 -69.4637 3.74269 -83.5728 -8.27306 5.2174 -5.35771 26.6034 -19.6499 -0.0 0.0 -0.0 3.53712 -21.0039 -7.55404 -22.9456 23.4412 -57.2783 6.10819 71.6799 -4.41385 -2.05668 0.0769909 -0.251331 0.466793 -6.82251 -5.89453 0.0 0.0 0.0 47.6255 8.5752 -8.89666 -18.0896 0.313484 2.7468 -0.0236721 -6.32911 0.00358245 -6.39232 0.0 0.0 -0.0 0.0 -0.0 9.03582 5.08708 -17.5821 3.12867 0.141425 0.459172 36.9643 -26.294 4.90724 39.1178 -0.0 -0.0 0.0 0.0 0.0 
918.609 630.159 -1638.03 -46.8247 71.244 51.1746 6.97374 0.120425 0.0584673 6.97373 0.11646 0.0660117 6.97387 0.110053 0.0762159 6.97388 0.120709 0.0578786 -21.9716 -12.7707 -3.25846 -22.8784 -23.0965 -9.03503 -0.0 0.0 -0.0 -1.89134 12.708 -1.64228 -16.405 -26.9551 77.9133 5.89688 -71.0717 4.2136 -84.8889 -8.43804 5.1873 -5.43189 26.9653 -19.8144 -0.0 0.0 -0.0 3.67148 -20.7243 -7.74753 -24.0501 23.6855 -56.7987 6.32827 72.2742 -4.62313 -0.570545 0.0204517 -0.0699926 0.413041 -4.82068 -4.73641 0.0 0.0 0.0 49.0834 12.9941 -5.7001 -8.89358 0.262748 1.33823 0.907595 1.07351 -0.133611 -7.69517 0.0 0.0 -0.0 0.0 -0.0 8.01182 8.51468 -17.8046 3.321 0.150937 0.487145 39.1596 -23.2891 5.03465 37.4055 -0.0 -0.0 0.0 0.0 0.0 
897.569 629.335 -1644.82 -45.884 70.7951 50.3021 7.12894 0.0876978 -0.0426656 7.12894 0.090235 -0.0369987 7.12888 0.0931182 -0.0289872 7.12889 0.0873716 -0.0433297 -22.4027 -12.8976 -2.75639 -23.3952 -23.5951 -8.75375 -0.0 0.0 -0.0 -2.06719 12.8212 -1.91646 -18.4346 -28.0257 76.5375 6.41374 -72.495 4.70459 -85.1513 -8.47083 5.18084 -5.26469 26.0779 -19.4918 -0.0 0.0 -0.0 3.89747 -20.0943 -8.07716 -24.7142 24.1121 -56.0754 6.40594 72.4751 -4.69715 1.55114 -0.0520644 0.191266 0.443433 -1.70627 -3.66683 0.0 0.0 0.0 47.284 15.1023 -3.19698 0.0488059 -0.00201266 -0.00721928 4.0128 5.19976 -0.581984 -7.94435 0.0 0.0 -0.0 0.0 -0.0 7.12299 11.4045 -17.1324 3.94767 0.182579 0.578067 40.4474 -19.4242 5.05636 34.7731 -0.0 -0.0 0.0 0.0 0.0 
879.968 616.623 -1636.64 -48.1445 71.1927 51.392 7.29182 -0.0149262 -0.0941977 7.29183 -0.00890191 -0.0949566 7.29183 -0.000856938 -0.0953691 7.29182 -0.0159079 -0.0940369 -23.2728 -12.2031 -2.21458 -24.2353 -22.5351 -8.09688 -0.0 0.0 -0.0 -1.72229 12.9744 -1.31841 -19.2757 -30.0552 75.102 7.85521 -75.5446 6.09085 -85.4633 -8.50979 5.17296 -5.03093 25.1326 -18.7859 -0.0 0.0 -0.0 3.99445 -19.5027 -8.22031 -25.2134 23.7659 -54.9203 6.63306 73.0377 -4.91406 3.33361 -0.105468 0.412674 0.493448 2.70502 -2.17157 0.0 0.0 0.0 47.8294 16.169 -2.29877 1.19942 -0.0512457 -0.176918 8.77793 7.51986 -1.25292 -7.47865 0.0 0.0 -0.0 0.0 -0.0 5.76131 14.6714 -16.0586 4.84802 0.229781 0.708091 41.4158 -16.3889 5.08107 31.2465 -0.0 -0.0 0.0 0.0 0.0 
864.436 610.117 -1634.0 -47.6746 69.9154 51.0076 7.63353 -0.0740445 -0.394287 7.63362 -0.0488051 -0.398199 7.63382 -0.017421 -0.4008 7.6336 -0.0805008 -0.393019 -23.2865 -11.2186 -1.14216 -24.1367 -21.1186 -6.5944 -0.0 0.0 -0.0 -1.03872 13.189 -0.15564 -19.242 -29.7585 72.7037 8.67519 -76.8525 6.88722 -85.2186 -8.47924 5.17916 -4.74402 24.1645 -17.7442 -0.0 0.0 -0.0 4.1388 -18.318 -8.43745 -25.4505 22.7632 -53.4431 6.04267 71.4955 -4.35168 5.41929 -0.159171 0.673675 0.561625 6.40439 -1.07342 0.0 0.0 0.0 46.2536 16.8997 0.431876 1.55862 -0.0673138 -0.229692 14.7879 4.6983 -2.06735 -6.8826 0.0 0.0 -0.0 0.0 -0.0 4.97713 16.9737 -15.1369 6.20381 0.304712 0.90248 42.2199 -14.7681 5.12295 26.2084 -0.0 -0.0 0.0 0.0 0.0 
832.915 608.179 -1632.2 -41.8866 69.0374 45.2701 7.62422 -0.241932 -0.813269 7.62457 -0.189694 -0.827014 7.62672 -0.12415 -0.839357 7.62583 -0.255149 -0.80922 -23.7961 -10.2049 -0.791291 -24.5267 -19.3266 -5.83272 -0.0 0.0 -0.0 -0.451052 13.6795 0.875353 -19.4647 -29.3966 71.4844 7.50874 -74.9113 5.75583 -83.1128 -8.21523 5.22702 -4.40086 23.2693 -16.2811 -0.0 0.0 -0.0 3.74595 -16.873 -7.81515 -29.2145 23.0204 -51.9992 5.71056 70.5021 -4.03765 7.26994 -0.198836 0.906742 0.756599 11.4454 -0.238086 0.0 0.0 0.0 48.2059 16.6595 0.422717 1.86582 -0.0813181 -0.274747 13.7683 1.32993 -1.94186 -6.67324 0.0 0.0 -0.0 0.0 -0.0 2.34162 20.3963 -13.3022 6.27846 0.30897 0.91313 42.5629 -17.1565 5.19474 20.1864 -0.0 -0.0 0.0 0.0 0.0 
812.301 607.629 -1638.15 -40.7171 68.728 43.8953 7.87553 -0.346062 -0.831716 7.87587 -0.292438 -0.85205 7.8796 -0.228472 -0.871382 7.87872 -0.363219 -0.824369 -24.0721 -9.58617 0.3054 -24.763 -18.6123 -4.54723 -0.0 0.0 -0.0 -0.652537 15.3419 0.764896 -22.06 -29.7814 70.8798 6.77515 -73.3721 5.05009 -82.8022 -8.17612 5.23325 -4.22969 22.0279 -16.0575 -0.0 0.0 -0.0 3.29577 -16.9732 -7.11197 -30.0438 24.4521 -52.2943 5.53801 69.9442 -3.87528 9.64793 -0.238715 1.20786 0.549559 10.3374 0.683181 0.0 0.0 0.0 47.6052 16.8203 0.220907 1.14387 -0.0487907 -0.168747 11.4563 -1.97052 -1.64379 -6.41587 0.0 0.0 -0.0 0.0 -0.0 -0.54889 20.774 -12.4756 5.76693 0.280063 0.840032 38.2641 -19.6936 4.85813 16.9947 -0.0 -0.0 0.0 0.0 0.0 
780.963 602.651 -1643.17 -38.6167 68.5582 40.6082 8.16798 -0.533623 -0.671346 8.1681 -0.489823 -0.70394 8.17381 -0.440092 -0.736054 8.17348 -0.550812 -0.657316 -24.5156 -8.60438 1.84812 -25.1238 -17.3746 -2.67385 -0.0 0.0 -0.0 -0.89504 16.9023 0.593424 -23.4529 -28.069 69.8886 5.03209 -68.1162 3.40281 -82.0175 -8.07718 5.24803 -3.94412 18.7326 -16.3738 -0.0 0.0 -0.0 2.45283 -17.43 -5.81925 -30.9459 25.8571 -52.8269 5.23229 68.8764 -3.58907 10.6866 -0.252205 1.33984 0.176332 7.53027 2.00574 0.0 0.0 0.0 46.7606 17.2303 0.0896166 0.2796 -0.011614 -0.041335 9.2869 -4.68187 -1.35596 -5.88966 0.0 0.0 -0.0 0.0 -0.0 -2.62824 20.8495 -11.9259 5.26451 0.252308 0.76799 24.5355 -22.1975 3.39973 17.694 -0.0 -0.0 0.0 0.0 0.0 
759.524 596.373 -1646.89 -39.0534 68.0377 41.1046 8.41574 -0.479421 -0.526757 8.41579 -0.444931 -0.556195 8.41995 -0.408003 -0.583824 8.41981 -0.495085 -0.512062 -25.1267 -7.19657 3.4925 -25.5885 -15.3258 -0.479772 -0.0 0.0 -0.0 -1.10479 17.3814 0.336285 -26.3409 -27.9569 69.4365 4.33518 -65.0105 2.76316 -82.332 -8.11687 5.24227 -4.05098 17.8952 -17.5743 -0.0 0.0 -0.0 1.16555 -18.0655 -3.887 -30.8462 28.2234 -54.1973 5.04548 68.1687 -3.41523 13.6089 -0.2773 1.71222 -0.117879 3.74223 2.37762 0.0 0.0 0.0 46.5859 17.5994 -0.279082 -0.492947 0.0199835 0.0730084 3.47213 -8.42816 -0.525754 -5.41429 0.0 0.0 -0.0 0.0 -0.0 -5.52874 22.8071 -9.96278 5.15962 0.246594 0.752921 12.8751 -25.7619 1.90492 19.2062 -0.0 -0.0 0.0 0.0 0.0 
740.476 604.453 -1649.86 -39.9204 67.5355 41.3112 8.72646 -0.432111 -0.478015 8.7265 -0.400818 -0.504542 8.72989 -0.370181 -0.527431 8.72978 -0.448832 -0.46235 -26.1621 -7.19221 3.30997 -26.646 -15.1672 -0.773343 -0.0 0.0 -0.0 -1.11709 17.3965 0.319502 -25.8448 -28.0749 69.5227 3.93667 -62.834 2.40515 -81.8158 -8.05171 5.25161 -3.77926 16.4894 -16.6928 -0.0 0.0 -0.0 0.50848 -19.1885 -2.99849 -29.1038 29.1261 -56.6448 4.31525 64.9094 -2.7451 13.4582 -0.27647 1.69299 -0.694156 -2.00918 3.76639 0.0 0.0 0.0 46.0182 17.585 -0.363912 -1.11852 0.0444371 0.165898 -0.720713 -11.6725 0.112512 -5.88095 0.0 0.0 -0.0 0.0 -0.0 -4.32107 22.6039 -9.65331 2.88958 0.129733 0.424357 3.79275 -27.2697 0.581382 18.8871 -0.0 -0.0 0.0 0.0 0.0 
